<svg width="4" height="17" viewBox="0 0 4 17" fill="none" xmlns="http://www.w3.org/2000/svg">
<path d="M2 16.6934C1.45 16.6934 0.979167 16.4975 0.5875 16.1059C0.195833 15.7142 0 15.2434 0 14.6934C0 14.1434 0.195833 13.6725 0.5875 13.2809C0.979167 12.8892 1.45 12.6934 2 12.6934C2.55 12.6934 3.02083 12.8892 3.4125 13.2809C3.80417 13.6725 4 14.1434 4 14.6934C4 15.2434 3.80417 15.7142 3.4125 16.1059C3.02083 16.4975 2.55 16.6934 2 16.6934ZM2 10.6934C1.45 10.6934 0.979167 10.4975 0.5875 10.1059C0.195833 9.71419 0 9.24336 0 8.69336C0 8.14336 0.195833 7.67253 0.5875 7.28086C0.979167 6.88919 1.45 6.69336 2 6.69336C2.55 6.69336 3.02083 6.88919 3.4125 7.28086C3.80417 7.67253 4 8.14336 4 8.69336C4 9.24336 3.80417 9.71419 3.4125 10.1059C3.02083 10.4975 2.55 10.6934 2 10.6934ZM2 4.69336C1.45 4.69336 0.979167 4.49753 0.5875 4.10586C0.195833 3.71419 0 3.24336 0 2.69336C0 2.14336 0.195833 1.67253 0.5875 1.28086C0.979167 0.889193 1.45 0.693359 2 0.693359C2.55 0.693359 3.02083 0.889193 3.4125 1.28086C3.80417 1.67253 4 2.14336 4 2.69336C4 3.24336 3.80417 3.71419 3.4125 4.10586C3.02083 4.49753 2.55 4.69336 2 4.69336Z" fill="black"/>
</svg>
