<svg width="24" height="24" viewBox="0 0 24 24" fill="none" xmlns="http://www.w3.org/2000/svg">
<path d="M12 22C10.6112 22 9.30842 21.7403 8.09175 21.2208C6.87508 20.7014 5.81533 19.9903 4.9125 19.0875C4.00967 18.1847 3.29858 17.1249 2.77925 15.9082C2.25975 14.6916 2 13.3888 2 12C2 10.6055 2.25975 9.30133 2.77925 8.0875C3.29858 6.87367 4.00967 5.81533 4.9125 4.9125C5.81533 4.00967 6.87508 3.29858 8.09175 2.77925C9.30842 2.25975 10.6112 2 12 2C12.2278 2 12.4237 2.08192 12.5875 2.24575C12.7513 2.40975 12.8333 2.60558 12.8333 2.83325C12.8333 3.06108 12.7513 3.25692 12.5875 3.42075C12.4237 3.58475 12.2278 3.66675 12 3.66675C9.6945 3.66675 7.72925 4.47925 6.10425 6.10425C4.47925 7.72925 3.66675 9.6945 3.66675 12C3.66675 14.3055 4.47925 16.2708 6.10425 17.8958C7.72925 19.5208 9.6945 20.3333 12 20.3333C14.3055 20.3333 16.2708 19.5208 17.8958 17.8958C19.5208 16.2708 20.3333 14.3055 20.3333 12C20.3333 11.7722 20.4153 11.5763 20.5793 11.4125C20.7431 11.2487 20.9389 11.1667 21.1668 11.1667C21.3944 11.1667 21.5903 11.2487 21.7543 11.4125C21.9181 11.5763 22 11.7722 22 12C22 13.3888 21.7403 14.6916 21.2208 15.9082C20.7014 17.1249 19.9903 18.1847 19.0875 19.0875C18.1847 19.9903 17.1263 20.7014 15.9125 21.2208C14.6987 21.7403 13.3945 22 12 22Z" fill="#2F80ED"/>
</svg>
