<svg width="19" height="18" viewBox="0 0 19 18" fill="none" xmlns="http://www.w3.org/2000/svg">
<path d="M9.11655 18C8.83047 18 8.59066 17.9042 8.39714 17.7125C8.20361 17.5208 8.10684 17.2833 8.10684 17V13C8.10684 12.7167 8.20361 12.4792 8.39714 12.2875C8.59066 12.0958 8.83047 12 9.11655 12C9.40264 12 9.64244 12.0958 9.83597 12.2875C10.0295 12.4792 10.1263 12.7167 10.1263 13V14H17.1942C17.4803 14 17.7201 14.0958 17.9136 14.2875C18.1072 14.4792 18.2039 14.7167 18.2039 15C18.2039 15.2833 18.1072 15.5208 17.9136 15.7125C17.7201 15.9042 17.4803 16 17.1942 16H10.1263V17C10.1263 17.2833 10.0295 17.5208 9.83597 17.7125C9.64244 17.9042 9.40264 18 9.11655 18ZM1.03888 16C0.752799 16 0.512994 15.9042 0.319466 15.7125C0.125939 15.5208 0.0291748 15.2833 0.0291748 15C0.0291748 14.7167 0.125939 14.4792 0.319466 14.2875C0.512994 14.0958 0.752799 14 1.03888 14H5.07772C5.3638 14 5.60361 14.0958 5.79714 14.2875C5.99066 14.4792 6.08743 14.7167 6.08743 15C6.08743 15.2833 5.99066 15.5208 5.79714 15.7125C5.60361 15.9042 5.3638 16 5.07772 16H1.03888ZM5.07772 12C4.79163 12 4.55183 11.9042 4.3583 11.7125C4.16477 11.5208 4.06801 11.2833 4.06801 11V10H1.03888C0.752799 10 0.512994 9.90417 0.319466 9.7125C0.125939 9.52083 0.0291748 9.28333 0.0291748 9C0.0291748 8.71667 0.125939 8.47917 0.319466 8.2875C0.512994 8.09583 0.752799 8 1.03888 8H4.06801V7C4.06801 6.71667 4.16477 6.47917 4.3583 6.2875C4.55183 6.09583 4.79163 6 5.07772 6C5.3638 6 5.60361 6.09583 5.79714 6.2875C5.99066 6.47917 6.08743 6.71667 6.08743 7V11C6.08743 11.2833 5.99066 11.5208 5.79714 11.7125C5.60361 11.9042 5.3638 12 5.07772 12ZM9.11655 10C8.83047 10 8.59066 9.90417 8.39714 9.7125C8.20361 9.52083 8.10684 9.28333 8.10684 9C8.10684 8.71667 8.20361 8.47917 8.39714 8.2875C8.59066 8.09583 8.83047 8 9.11655 8H17.1942C17.4803 8 17.7201 8.09583 17.9136 8.2875C18.1072 8.47917 18.2039 8.71667 18.2039 9C18.2039 9.28333 18.1072 9.52083 17.9136 9.7125C17.7201 9.90417 17.4803 10 17.1942 10H9.11655ZM13.1554 6C12.8693 6 12.6295 5.90417 12.436 5.7125C12.2424 5.52083 12.1457 5.28333 12.1457 5V1C12.1457 0.716667 12.2424 0.479167 12.436 0.2875C12.6295 0.0958333 12.8693 0 13.1554 0C13.4415 0 13.6813 0.0958333 13.8748 0.2875C14.0683 0.479167 14.1651 0.716667 14.1651 1V2H17.1942C17.4803 2 17.7201 2.09583 17.9136 2.2875C18.1072 2.47917 18.2039 2.71667 18.2039 3C18.2039 3.28333 18.1072 3.52083 17.9136 3.7125C17.7201 3.90417 17.4803 4 17.1942 4H14.1651V5C14.1651 5.28333 14.0683 5.52083 13.8748 5.7125C13.6813 5.90417 13.4415 6 13.1554 6ZM1.03888 4C0.752799 4 0.512994 3.90417 0.319466 3.7125C0.125939 3.52083 0.0291748 3.28333 0.0291748 3C0.0291748 2.71667 0.125939 2.47917 0.319466 2.2875C0.512994 2.09583 0.752799 2 1.03888 2H9.11655C9.40264 2 9.64244 2.09583 9.83597 2.2875C10.0295 2.47917 10.1263 2.71667 10.1263 3C10.1263 3.28333 10.0295 3.52083 9.83597 3.7125C9.64244 3.90417 9.40264 4 9.11655 4H1.03888Z" fill="#828282"/>
</svg>
